<svg width="50" height="50" viewBox="0 0 50 50" fill="none" xmlns="http://www.w3.org/2000/svg">
<g clip-path="url(#clip0)">
<path d="M7.77344 25.3632L10.3825 24.1229L12.219 24.8837L13.187 27.6056C13.241 27.7575 13.3407 27.8889 13.4724 27.9819C13.6041 28.0749 13.7613 28.1249 13.9226 28.125H17.3274C17.4887 28.125 17.6461 28.0751 17.7779 27.9821C17.9097 27.8891 18.0094 27.7575 18.0635 27.6056L19.0314 24.8837L20.868 24.1229L23.4771 25.3632C23.6228 25.4324 23.7863 25.4548 23.9453 25.4273C24.1042 25.3999 24.2508 25.324 24.3649 25.21L26.7725 22.8027C26.8865 22.6887 26.9625 22.5421 26.99 22.3831C27.0174 22.2241 26.9949 22.0605 26.9257 21.9148L25.6854 19.3058L26.4462 17.4692L29.1681 16.5013C29.3201 16.4472 29.4516 16.3474 29.5446 16.2155C29.6376 16.0837 29.6876 15.9263 29.6875 15.7649V12.3601C29.6875 12.1988 29.6376 12.0414 29.5446 11.9096C29.4516 11.7778 29.32 11.6781 29.1681 11.624L26.4462 10.6561L25.6854 8.81953L26.9257 6.21045C26.995 6.06471 27.0175 5.90107 26.9901 5.74203C26.9626 5.58299 26.8866 5.43635 26.7725 5.32227L24.3652 2.91504C24.2512 2.80095 24.1046 2.72497 23.9456 2.69754C23.7866 2.6701 23.623 2.69256 23.4773 2.76182L20.8683 4.00205L19.0317 3.24131L18.0635 0.519434C18.0094 0.367463 17.9097 0.235948 17.7779 0.142945C17.6461 0.049941 17.4887 7.8513e-06 17.3274 0L13.9226 0C13.7613 7.8513e-06 13.6039 0.049941 13.4721 0.142945C13.3403 0.235948 13.2406 0.367463 13.1865 0.519434L12.2186 3.24131L10.382 4.00205L7.77344 2.76182C7.62764 2.69238 7.4639 2.66982 7.30476 2.69726C7.14562 2.7247 6.99889 2.80078 6.88477 2.91504L4.47754 5.32227C4.36328 5.43639 4.2872 5.58312 4.25976 5.74226C4.23232 5.9014 4.25488 6.06514 4.32432 6.21094L5.56455 8.82002L4.80381 10.6565L2.08193 11.624C1.92996 11.6781 1.79845 11.7778 1.70544 11.9096C1.61244 12.0414 1.56251 12.1988 1.5625 12.3601V15.7649C1.56251 15.9262 1.61244 16.0836 1.70544 16.2154C1.79845 16.3472 1.92996 16.4469 2.08193 16.501L4.80381 17.4689L5.56455 19.3055L4.32432 21.9146C4.25499 22.0603 4.2325 22.2239 4.25993 22.383C4.28737 22.542 4.36339 22.6886 4.47754 22.8027L6.88477 25.21C6.99894 25.3241 7.14566 25.4002 7.30478 25.4276C7.46391 25.455 7.62762 25.4325 7.77344 25.3632ZM7.14102 19.0283L6.11445 16.5502C6.07261 16.4492 6.01004 16.3581 5.93077 16.2829C5.8515 16.2076 5.75731 16.1498 5.6543 16.1133L3.125 15.2136V12.9114L5.6543 12.0117C5.75729 11.9751 5.85146 11.9173 5.93069 11.842C6.00992 11.7667 6.07246 11.6756 6.11426 11.5746L7.14102 9.09668C7.18292 8.99564 7.20313 8.88693 7.20036 8.77759C7.19758 8.66824 7.17187 8.5607 7.1249 8.46191L5.97256 6.03721L7.6001 4.40977L10.0248 5.56211C10.1236 5.60913 10.2311 5.63486 10.3405 5.63764C10.4498 5.64041 10.5585 5.62017 10.6596 5.57822L13.1377 4.55166C13.2386 4.50981 13.3296 4.44726 13.4047 4.36804C13.4799 4.28883 13.5377 4.19472 13.5742 4.0918L14.4739 1.5625H16.7761L17.6758 4.0918C17.7124 4.19479 17.7702 4.28896 17.8455 4.36819C17.9208 4.44742 18.0119 4.50996 18.1129 4.55176L20.5908 5.57852C20.6918 5.62046 20.8006 5.64071 20.9099 5.63793C21.0193 5.63515 21.1268 5.60942 21.2256 5.5624L23.6503 4.41006L25.2781 6.03789L24.1258 8.4626C24.0788 8.56138 24.0531 8.66892 24.0503 8.77827C24.0476 8.88762 24.0678 8.99633 24.1097 9.09736L25.1362 11.5755C25.1781 11.6763 25.2406 11.7672 25.3197 11.8423C25.3989 11.9174 25.4929 11.9752 25.5957 12.0117L28.125 12.9112V15.2134L25.5957 16.1133C25.4927 16.1499 25.3985 16.2077 25.3193 16.283C25.2401 16.3583 25.1775 16.4494 25.1357 16.5504L24.109 19.0283C24.0671 19.1294 24.0469 19.2381 24.0496 19.3474C24.0524 19.4568 24.0781 19.5643 24.1251 19.6631L25.2774 22.0878L23.6496 23.7156L21.2249 22.5633C21.1261 22.5163 21.0186 22.4905 20.9092 22.4878C20.7999 22.485 20.6912 22.5052 20.5901 22.5472L18.112 23.5737C18.0112 23.6156 17.9203 23.6781 17.8452 23.7572C17.7701 23.8364 17.7123 23.9304 17.6758 24.0332L16.7761 26.5625H14.4739L13.5742 24.0332C13.5376 23.9302 13.4798 23.836 13.4045 23.7568C13.3292 23.6776 13.2381 23.615 13.1371 23.5732L10.6592 22.5465C10.5582 22.5045 10.4494 22.4843 10.3401 22.4871C10.2307 22.4898 10.1232 22.5156 10.0244 22.5626L7.59971 23.7149L5.97227 22.0874L7.12461 19.6627C7.17157 19.564 7.1973 19.4565 7.20012 19.3472C7.20295 19.238 7.18281 19.1293 7.14102 19.0283Z" fill="#93DE64"/>
<path d="M15.625 21.0937C17.0156 21.0937 18.3751 20.6813 19.5314 19.9087C20.6876 19.1361 21.5888 18.038 22.121 16.7532C22.6532 15.4684 22.7924 14.0547 22.5211 12.6907C22.2498 11.3268 21.5802 10.074 20.5968 9.09063C19.6135 8.10729 18.3607 7.43763 16.9967 7.16633C15.6328 6.89502 14.219 7.03427 12.9343 7.56644C11.6495 8.09862 10.5513 8.99984 9.77873 10.1561C9.00613 11.3124 8.59375 12.6718 8.59375 14.0625C8.59584 15.9266 9.33731 17.7138 10.6555 19.032C11.9736 20.3502 13.7608 21.0916 15.625 21.0937ZM15.625 8.59372C16.7066 8.59372 17.7639 8.91446 18.6633 9.51537C19.5626 10.1163 20.2635 10.9704 20.6775 11.9697C21.0914 12.969 21.1997 14.0685 20.9887 15.1294C20.7777 16.1902 20.2568 17.1646 19.492 17.9295C18.7272 18.6943 17.7527 19.2151 16.6919 19.4261C15.6311 19.6372 14.5315 19.5289 13.5322 19.1149C12.5329 18.701 11.6788 18.0001 11.0779 17.1007C10.477 16.2014 10.1562 15.1441 10.1562 14.0625C10.1579 12.6126 10.7346 11.2225 11.7598 10.1973C12.785 9.17204 14.1751 8.59535 15.625 8.59372Z" fill="#93DE64"/>
<path d="M30.7422 37.644L29.7158 40.1221C29.6739 40.2232 29.6537 40.3319 29.6565 40.4412C29.6593 40.5506 29.685 40.6581 29.7319 40.7569L30.8843 43.1816L29.2564 44.8094L26.8317 43.6571C26.733 43.6101 26.6254 43.5844 26.5161 43.5816C26.4067 43.5789 26.298 43.5991 26.197 43.641L23.7197 44.6668C23.6187 44.7087 23.5276 44.7712 23.4523 44.8504C23.377 44.9297 23.3192 45.0238 23.2825 45.1268L22.3828 47.6563H20.081L19.1813 45.127C19.1448 45.024 19.0869 44.9298 19.0116 44.8506C18.9363 44.7714 18.8452 44.7088 18.7442 44.667L16.2661 43.6405C16.1651 43.5985 16.0564 43.5783 15.947 43.5811C15.8377 43.5838 15.7301 43.6096 15.6313 43.6566L13.2066 44.8089L11.5788 43.1811L12.7312 40.7564C12.7781 40.6576 12.8038 40.5501 12.8066 40.4407C12.8094 40.3314 12.7892 40.2227 12.7473 40.1216L11.7209 37.6435C11.6791 37.5427 11.6166 37.4518 11.5374 37.3766C11.4583 37.3015 11.3643 37.2437 11.2615 37.2071L8.73223 36.3077V34.0052L11.2615 33.1057C11.3645 33.0691 11.4587 33.0113 11.5379 32.936C11.6172 32.8607 11.6797 32.7696 11.7216 32.6686L12.748 30.1905C12.7898 30.0894 12.8101 29.9807 12.8073 29.8714C12.8045 29.762 12.7788 29.6545 12.7318 29.5557L11.3425 26.6331L9.93164 27.3047L11.1719 29.9138L10.4112 31.7503L7.68936 32.7182C7.53737 32.7723 7.40584 32.8721 7.31284 33.0039C7.21983 33.1357 7.16991 33.293 7.16992 33.4543V36.8592C7.16991 37.0205 7.21983 37.1779 7.31284 37.3097C7.40584 37.4415 7.53737 37.5413 7.68936 37.5954L10.4112 38.5632L11.1719 40.3998L9.93164 43.0088C9.86239 43.1546 9.83995 43.3181 9.86741 43.4771C9.89486 43.6361 9.97086 43.7827 10.085 43.8967L12.4922 46.3038C12.6062 46.4178 12.7528 46.4938 12.9118 46.5212C13.0707 46.5487 13.2343 46.5262 13.38 46.457L15.9891 45.2168L17.825 45.9775L18.7931 48.6994C18.8471 48.8514 18.947 48.983 19.0789 49.076C19.2108 49.169 19.3682 49.2189 19.5296 49.2188H22.9345C23.0958 49.2188 23.2532 49.1689 23.385 49.0759C23.5168 48.9829 23.6165 48.8514 23.6706 48.6994L24.6385 45.9775L26.475 45.2168L29.084 46.457C29.2297 46.5262 29.3932 46.5487 29.5522 46.5212C29.7112 46.4938 29.8577 46.4178 29.9718 46.3038L32.3794 43.8965C32.4935 43.7825 32.5695 43.6359 32.597 43.4769C32.6244 43.3179 32.602 43.1544 32.5327 43.0086L31.2925 40.3996L32.186 38.2422L30.7422 37.644Z" fill="#93DE64"/>
<path d="M32.3791 26.416L29.9715 24.0088C29.8574 23.8947 29.7109 23.8187 29.5519 23.7913C29.3929 23.7639 29.2294 23.7863 29.0837 23.8555L26.1611 25.2449L26.8319 26.6561L29.2566 25.5038L30.8845 27.1316L29.7321 29.5563C29.6852 29.6551 29.6595 29.7626 29.6567 29.872C29.6539 29.9813 29.6741 30.0901 29.716 30.1911L30.6023 32.3309L32.0458 31.7329L31.2925 29.9139L32.5327 27.3049C32.6022 27.159 32.6247 26.9952 32.5972 26.836C32.5696 26.6768 32.4935 26.5301 32.3791 26.416Z" fill="#93DE64"/>
<path d="M21.2324 42.1875C22.6231 42.1875 23.9825 41.7751 25.1388 41.0025C26.2951 40.2299 27.1963 39.1318 27.7285 37.847C28.2606 36.5622 28.3999 35.1484 28.1286 33.7845C27.8573 32.4206 27.1876 31.1677 26.2043 30.1844C25.2209 29.201 23.9681 28.5314 22.6042 28.2601C21.2402 27.9888 19.8265 28.128 18.5417 28.6602C17.2569 29.1924 16.1588 30.0936 15.3862 31.2499C14.6135 32.4062 14.2012 33.7656 14.2012 35.1562C14.2033 37.0204 14.9447 38.8076 16.2629 40.1258C17.5811 41.4439 19.3683 42.1854 21.2324 42.1875ZM21.2324 29.6875C22.314 29.6875 23.3714 30.0082 24.2707 30.6091C25.17 31.21 25.871 32.0641 26.2849 33.0634C26.6988 34.0627 26.8071 35.1623 26.5961 36.2231C26.3851 37.284 25.8642 38.2584 25.0994 39.0232C24.3346 39.788 23.3602 40.3089 22.2993 40.5199C21.2385 40.7309 20.1389 40.6226 19.1396 40.2087C18.1403 39.7948 17.2862 39.0938 16.6853 38.1945C16.0844 37.2952 15.7637 36.2378 15.7637 35.1562C15.7653 33.7063 16.342 32.3163 17.3672 31.291C18.3925 30.2658 19.7825 29.6891 21.2324 29.6875Z" fill="#93DE64"/>
<path d="M47.9184 13.9678L45.1965 12.9998L44.4357 11.1633L45.676 8.5542C45.7453 8.40846 45.7678 8.24482 45.7404 8.08578C45.7129 7.92674 45.6369 7.7801 45.5228 7.66602L43.1155 5.25879C43.0015 5.1447 42.8549 5.06872 42.6959 5.04129C42.5369 5.01385 42.3733 5.0363 42.2276 5.10557L39.6186 6.3458L37.782 5.58506L36.8142 2.86318C36.7601 2.71115 36.6603 2.57959 36.5284 2.48658C36.3965 2.39357 36.2391 2.34368 36.0777 2.34375H32.6728C32.5115 2.34374 32.3542 2.39366 32.2224 2.48667C32.0906 2.57967 31.9908 2.7112 31.9367 2.86318L30.9688 5.58506L28.8115 6.47881L29.4095 7.92227L31.8876 6.8957C31.9886 6.85383 32.0796 6.79124 32.1549 6.71198C32.2301 6.63272 32.2879 6.53854 32.3245 6.43555L33.2239 3.90625H35.5261L36.4261 6.43555C36.4627 6.53854 36.5205 6.63271 36.5958 6.71194C36.6711 6.79118 36.7622 6.85371 36.8632 6.89551L39.3411 7.92227C39.4422 7.96417 39.5509 7.98438 39.6602 7.98161C39.7696 7.97883 39.8771 7.95312 39.9759 7.90615L42.4006 6.75381L44.0284 8.38164L42.8761 10.8063C42.8291 10.9051 42.8034 11.0127 42.8006 11.122C42.7978 11.2314 42.8181 11.3401 42.86 11.4411L43.8865 13.9192C43.9284 14.02 43.9909 14.1109 44.0701 14.186C44.1492 14.2612 44.2432 14.3189 44.346 14.3555L46.8753 15.2549V17.557L44.346 18.457C44.243 18.4937 44.1489 18.5515 44.0696 18.6268C43.9904 18.7021 43.9279 18.7932 43.886 18.8942L42.8593 21.3721C42.8174 21.4731 42.7972 21.5818 42.7999 21.6912C42.8027 21.8005 42.8284 21.9081 42.8754 22.0068L44.0277 24.4315L42.0101 26.4492L43.1155 27.5537L45.5228 25.1465C45.6368 25.0324 45.7128 24.8858 45.7403 24.7269C45.7677 24.5679 45.7452 24.4043 45.676 24.2586L44.4357 21.6495L45.1965 19.813L47.9184 18.8451C48.0704 18.791 48.202 18.6912 48.295 18.5593C48.388 18.4275 48.4379 18.2701 48.4378 18.1087V14.7038C48.4378 14.5425 48.3879 14.3852 48.2948 14.2534C48.2018 14.1216 48.0703 14.0218 47.9184 13.9678Z" fill="#93DE64"/>
<path d="M34.3754 21.875C33.2851 21.8781 32.219 21.554 31.3149 20.9447C30.4107 20.3354 29.7102 19.4688 29.3039 18.457L27.8555 19.043C28.3926 20.3707 29.3225 21.5027 30.5206 22.2876C31.7187 23.0724 33.1279 23.4727 34.5597 23.4347C35.9915 23.3968 37.3775 22.9225 38.5324 22.0754C39.6873 21.2282 40.5559 20.0485 41.022 18.6942C41.4881 17.3399 41.5295 15.8755 41.1407 14.497C40.7518 13.1185 39.9513 11.8917 38.8461 10.9806C37.741 10.0695 36.3839 9.51769 34.9566 9.39892C33.5292 9.28015 32.0996 9.60011 30.8591 10.316L31.6417 11.6684C32.3682 11.2496 33.1813 11.0035 34.0181 10.949C34.855 10.8946 35.6931 11.0333 36.4678 11.3545C37.2424 11.6757 37.9328 12.1708 38.4856 12.8014C39.0384 13.432 39.4387 14.1813 39.6557 14.9914C39.8726 15.8014 39.9004 16.6505 39.7368 17.473C39.5732 18.2955 39.2227 19.0693 38.7123 19.7347C38.2019 20.4001 37.5453 20.9392 36.7933 21.3103C36.0413 21.6814 35.214 21.8746 34.3754 21.875Z" fill="#93DE64"/>
<path d="M43.2369 29.6875H40.6251V26.5625C40.6251 25.9409 40.3782 25.3448 39.9386 24.9052C39.4991 24.4657 38.9029 24.2188 38.2813 24.2188C37.6597 24.2188 37.0636 24.4657 36.6241 24.9052C36.1845 25.3448 35.9376 25.9409 35.9376 26.5625V33.2702L35.413 32.7454C34.9557 32.2881 34.3354 32.0312 33.6886 32.0312C33.0419 32.0312 32.4216 32.2881 31.9643 32.7454C31.5069 33.2027 31.25 33.823 31.25 34.4698C31.25 35.1165 31.5069 35.7368 31.9643 36.1941L35.9376 40.1673V41.4062H35.1563C34.9491 41.4062 34.7504 41.4886 34.6039 41.6351C34.4574 41.7816 34.3751 41.9803 34.3751 42.1875V49.2188H35.9376V42.9688H45.3126V49.2188H46.8751V42.1875C46.8751 41.9803 46.7928 41.7816 46.6463 41.6351C46.4998 41.4886 46.301 41.4062 46.0938 41.4062H45.3126V40.1673L46.9142 38.5657C47.6415 37.8384 48.1369 36.9117 48.3376 35.9029C48.5382 34.8941 48.4353 33.8484 48.0417 32.8981C47.6481 31.9478 46.9815 31.1355 46.1263 30.564C45.271 29.9926 44.2655 29.6875 43.2369 29.6875ZM45.8095 37.4609L43.9789 39.2915C43.8324 39.438 43.7501 39.6366 43.7501 39.8438V41.4062H37.5001V39.8438C37.5001 39.7412 37.4799 39.6396 37.4406 39.5448C37.4014 39.45 37.3438 39.3639 37.2713 39.2913L33.0692 35.0892C32.9867 35.0081 32.9211 34.9115 32.8761 34.8049C32.8311 34.6983 32.8077 34.5839 32.8072 34.4682C32.8067 34.3525 32.8291 34.2378 32.8731 34.1309C32.9171 34.0239 32.9819 33.9267 33.0637 33.8449C33.1455 33.7631 33.2427 33.6983 33.3497 33.6543C33.4567 33.6102 33.5713 33.5878 33.687 33.5883C33.8027 33.5888 33.9171 33.6123 34.0237 33.6572C34.1303 33.7022 34.2269 33.7679 34.308 33.8504L36.1664 35.7087C36.2757 35.818 36.4149 35.8924 36.5664 35.9225C36.718 35.9527 36.8751 35.9372 37.0178 35.8781C37.1606 35.8189 37.2826 35.7188 37.3684 35.5903C37.4543 35.4618 37.5001 35.3108 37.5001 35.1562V26.5625C37.5001 26.3553 37.5824 26.1566 37.7289 26.0101C37.8754 25.8636 38.0741 25.7812 38.2813 25.7812C38.4885 25.7812 38.6873 25.8636 38.8338 26.0101C38.9803 26.1566 39.0626 26.3553 39.0626 26.5625V30.4688C39.0626 30.676 39.1449 30.8747 39.2914 31.0212C39.4379 31.1677 39.6366 31.25 39.8438 31.25H43.2369C43.9565 31.25 44.66 31.4633 45.2583 31.8631C45.8566 32.2629 46.323 32.8311 46.5983 33.496C46.8737 34.1608 46.9457 34.8923 46.8053 35.5981C46.6649 36.3039 46.3183 36.9521 45.8095 37.4609Z" fill="#93DE64"/>
<path d="M42.1875 44.5312H43.75V46.0938H42.1875V44.5312Z" fill="#93DE64"/>
</g>
<defs>
<clipPath id="clip0">
<rect width="50" height="50" fill="white"/>
</clipPath>
</defs>
</svg>
