<svg width="12" height="20" viewBox="0 0 12 20" fill="none" xmlns="http://www.w3.org/2000/svg">
<path fill-rule="evenodd" clip-rule="evenodd" d="M6.875 6.875V5.3125C6.875 5.27695 6.87878 5.2421 6.88596 5.20833C6.93577 4.97392 7.14909 4.79167 7.39583 4.79167H10V1.66667H7.39583C5.38542 1.66667 3.75 3.30208 3.75 5.3125V6.875H1.66667V10H3.75V18.3333H6.875V10H9.47917L10 6.875H6.875ZM8.54167 11.6667V18.3333C8.54167 19.2538 7.79547 20 6.875 20H3.75C2.82953 20 2.08333 19.2538 2.08333 18.3333V11.6667H1.66667C0.746192 11.6667 0 10.9205 0 10V6.875C0 5.95453 0.746192 5.20833 1.66667 5.20833H2.08434C2.13997 2.32539 4.49974 0 7.39583 0H10C10.9205 0 11.6667 0.746192 11.6667 1.66667V4.79167C11.6667 5.18583 11.5298 5.54804 11.3011 5.83338C11.5967 6.20265 11.722 6.68096 11.644 7.149L11.1232 10.274C10.9892 11.0776 10.2939 11.6667 9.47917 11.6667H8.54167Z" fill="#93DE64"/>
</svg>
