<svg width="20" height="20" viewBox="0 0 20 20" fill="none" xmlns="http://www.w3.org/2000/svg">
<g clip-path="url(#clip0)">
<path d="M10 1.80027C12.6719 1.80027 12.9881 1.81215 14.0387 1.85902C15.0156 1.90215 15.5425 2.0659 15.8944 2.20277C16.3594 2.38277 16.695 2.60152 17.0425 2.94902C17.3944 3.3009 17.6087 3.63277 17.7925 4.09777C17.9294 4.44965 18.0931 4.98027 18.1362 5.9534C18.1831 7.0084 18.195 7.32465 18.195 9.99277C18.195 12.6609 18.1831 12.9809 18.1362 14.0321C18.0931 15.009 17.9294 15.5359 17.7925 15.8878C17.6125 16.3528 17.3944 16.6884 17.0462 17.0359C16.6944 17.3878 16.3625 17.6021 15.8981 17.7859C15.5463 17.9228 15.015 18.0865 14.0425 18.1296C12.9875 18.1765 12.6712 18.1884 10.0031 18.1884C7.335 18.1884 7.015 18.1765 5.96375 18.1296C4.98688 18.0865 4.46 17.9228 4.10812 17.7859C3.64313 17.6059 3.3075 17.3878 2.95938 17.0396C2.6075 16.6878 2.39313 16.3559 2.20938 15.8915C2.0725 15.5396 1.90875 15.0084 1.86562 14.0359C1.81875 12.9809 1.80687 12.6646 1.80687 9.99652C1.80687 7.3284 1.81875 7.0084 1.86562 5.95715C1.90875 4.98027 2.0725 4.4534 2.20938 4.10152C2.38937 3.63652 2.60812 3.3009 2.95563 2.95277C3.3075 2.6009 3.63937 2.38652 4.10437 2.20277C4.45625 2.0659 4.98688 1.90215 5.96 1.85902C7.01063 1.81215 7.3275 1.80027 9.99937 1.80027H10ZM10 -0.000351562C7.285 -0.000351562 6.94563 0.0115234 5.87875 0.0583984C4.81625 0.105273 4.08563 0.277148 3.45312 0.523398C2.79313 0.780898 2.23438 1.1209 1.68 1.67965C1.12125 2.23465 0.78125 2.79277 0.52375 3.44902C0.2775 4.0859 0.105625 4.81215 0.05875 5.87465C0.011875 6.94527 0 7.28465 0 9.99965C0 12.7146 0.011875 13.054 0.05875 14.1209C0.105625 15.1834 0.2775 15.914 0.52375 16.5465C0.781875 17.2065 1.12125 17.7653 1.68 18.3196C2.23438 18.874 2.79313 19.2184 3.44938 19.4721C4.08625 19.7184 4.8125 19.8903 5.875 19.9371C6.94125 19.984 7.28125 19.9959 9.99625 19.9959C12.7113 19.9959 13.0512 19.984 14.1175 19.9371C15.18 19.8903 15.9106 19.7184 16.5431 19.4721C17.1994 19.2184 17.7581 18.8746 18.3125 18.3196C18.8669 17.7646 19.2113 17.2065 19.465 16.5503C19.7113 15.9134 19.8831 15.1871 19.93 14.1246C19.9769 13.0584 19.9888 12.7184 19.9888 10.0034C19.9888 7.2884 19.9769 6.94902 19.93 5.88215C19.8831 4.81965 19.7113 4.08902 19.465 3.45652C19.2188 2.79215 18.8787 2.23402 18.3206 1.67902C17.7663 1.12465 17.2075 0.780273 16.5513 0.526523C15.9144 0.280273 15.1881 0.108398 14.1256 0.0615234C13.0556 0.0108984 12.7156 -0.000976562 10.0006 -0.000976562L10 -0.000351562Z" fill="#93DE64"/>
<path d="M10 4.86328C7.16441 4.86328 4.86316 7.16391 4.86316 10.0002C4.86316 12.8364 7.16378 15.137 10 15.137C12.8363 15.137 15.1369 12.8364 15.1369 10.0002C15.1369 7.16453 12.8363 4.86328 10 4.86328ZM10 13.332C8.16003 13.332 6.66816 11.8402 6.66816 10.0002C6.66816 8.16016 8.16003 6.66828 10 6.66828C11.84 6.66828 13.3319 8.16016 13.3319 10.0002C13.3319 11.8402 11.84 13.332 10 13.332Z" fill="#93DE64"/>
<path d="M16.5388 4.65982C16.5388 5.32232 16.0019 5.8592 15.3394 5.8592C14.6769 5.8592 14.14 5.32232 14.14 4.65982C14.14 3.99732 14.6769 3.46045 15.3394 3.46045C16.0019 3.46045 16.5388 3.99732 16.5388 4.65982Z" fill="#93DE64"/>
</g>
<defs>
<clipPath id="clip0">
<rect width="20" height="20" fill="white"/>
</clipPath>
</defs>
</svg>
