<svg width="15" height="15" viewBox="0 0 15 15" fill="none" xmlns="http://www.w3.org/2000/svg">
<g clip-path="url(#clip0)">
<path d="M13.1688 2H1.83426C0.822471 2 0 2.82247 0 3.83426V11.581C0 12.5928 0.822471 13.4153 1.83426 13.4153H13.1657C14.1775 13.4153 15 12.5928 15 11.581V3.83737C15.0031 2.82557 14.1806 2 13.1688 2ZM14.1651 11.581C14.1651 12.1304 13.7182 12.5773 13.1688 12.5773H1.83426C1.28492 12.5773 0.837989 12.1304 0.837989 11.581V3.83737C0.837989 3.28802 1.28492 2.84109 1.83426 2.84109H13.1657C13.7151 2.84109 14.162 3.28802 14.162 3.83737V11.581H14.1651Z" fill="#93DE64"/>
<path d="M9.45982 7.61123L13.1284 4.32134C13.2991 4.16616 13.3146 3.90235 13.1594 3.72855C13.0042 3.55784 12.7404 3.54233 12.5666 3.69751L7.50762 8.23817L6.52065 7.35673C6.51755 7.35362 6.51445 7.35052 6.51445 7.34742C6.49272 7.32569 6.47099 7.30707 6.44617 7.28845L2.43003 3.6944C2.25622 3.53922 1.99241 3.55474 1.83723 3.72855C1.68204 3.90235 1.69756 4.16616 1.87137 4.32134L5.58335 7.63916L1.88689 11.0997C1.71929 11.258 1.70998 11.5218 1.86826 11.6925C1.95206 11.7794 2.06379 11.826 2.17553 11.826C2.27795 11.826 2.38037 11.7888 2.46106 11.7143L6.21339 8.20403L7.23139 9.1134C7.31209 9.18478 7.41141 9.21892 7.51072 9.21892C7.61004 9.21892 7.71246 9.18168 7.79005 9.1103L8.83599 8.17299L12.5666 11.7174C12.6473 11.795 12.7528 11.8322 12.8552 11.8322C12.967 11.8322 13.0756 11.7888 13.1594 11.7019C13.3177 11.5343 13.3115 11.2673 13.1439 11.1091L9.45982 7.61123Z" fill="#93DE64"/>
</g>
<defs>
<clipPath id="clip0">
<rect width="15" height="15" fill="white"/>
</clipPath>
</defs>
</svg>
