<svg width="15" height="15" viewBox="0 0 15 15" fill="none" xmlns="http://www.w3.org/2000/svg">
<g clip-path="url(#clip0)">
<path d="M14.4303 11.7353L11.4912 8.79614C11.1403 8.44531 10.5696 8.44531 10.2187 8.79614L9.45436 9.56044C9.21489 9.79991 9.13919 10.1418 9.22664 10.4464L8.93827 10.7348C8.93818 10.7349 8.93812 10.7349 8.93804 10.735C8.73325 10.94 7.45787 10.6254 5.91621 9.08375C4.37479 7.54235 4.06008 6.26717 4.26486 6.062C4.26486 6.06194 4.26492 6.06194 4.26492 6.06194L4.55355 5.77334C4.63503 5.79675 4.71911 5.8087 4.80325 5.8087C5.03367 5.8087 5.26406 5.72102 5.43952 5.54562L6.20382 4.78132C6.55465 4.43049 6.55465 3.85969 6.20382 3.50883L3.26467 0.569649C3.09475 0.399727 2.86878 0.306152 2.62846 0.306152C2.38808 0.306152 2.1622 0.399785 1.99225 0.569649L1.22789 1.33401C0.988418 1.57348 0.912715 1.91543 1.00017 2.21997C1.00017 2.21997 0.755713 2.46677 0.743555 2.48236C-0.0695216 3.38614 -0.22207 4.80906 0.316963 6.51031C0.844805 8.17604 1.9827 9.94063 3.52107 11.4789C5.05939 13.0172 6.82397 14.1551 8.48971 14.683C9.15885 14.8951 9.78483 15.0001 10.3533 15.0001C11.2853 15.0001 12.0624 14.7175 12.6194 14.1605L12.7798 14.0001C12.86 14.0232 12.9439 14.0356 13.0297 14.0356C13.2701 14.0356 13.496 13.942 13.6659 13.7721L14.4303 13.0078C14.7811 12.6569 14.7811 12.0861 14.4303 11.7353ZM2.62846 1.20586L5.56764 4.14508L4.80375 4.90978C4.80375 4.90978 4.8036 4.90964 4.80334 4.90937L4.79235 4.89839L3.33375 3.43978L1.86413 1.97022L2.62846 1.20586ZM11.9832 13.5242C11.9832 13.5243 11.9831 13.5243 11.9831 13.5244C11.3358 14.1716 10.1917 14.2785 8.76155 13.8253C7.23073 13.3402 5.59559 12.2809 4.15737 10.8426C2.7191 9.4044 1.65984 7.76931 1.17478 6.23846C0.721553 4.80827 0.828457 3.66414 1.4758 3.01676L1.47586 3.0167L1.55701 2.93555L3.83798 5.21649L3.62877 5.4257C3.62862 5.42585 3.62851 5.42603 3.62833 5.4262C2.76158 6.29404 3.80303 8.24301 5.28003 9.72002C6.38552 10.8255 7.75541 11.687 8.73855 11.687C9.06914 11.687 9.35602 11.5896 9.57434 11.3713C9.57442 11.3712 9.57448 11.3711 9.57457 11.371L9.78354 11.162L12.0645 13.443L11.9832 13.5242ZM13.0298 13.1359L10.0906 10.1967L10.8549 9.43241L13.7941 12.3715C13.7941 12.3715 13.03 13.1362 13.0298 13.1359Z" fill="#93DE64"/>
<path d="M11.3911 3.60868C10.5354 2.75295 9.3977 2.28171 8.18768 2.28174C7.93921 2.28174 7.73779 2.48315 7.73779 2.73162C7.73779 2.98009 7.93924 3.1815 8.18768 3.1815C9.1574 3.18145 10.0691 3.55914 10.7549 4.24489C11.4406 4.93062 11.8182 5.8423 11.8182 6.812C11.8182 7.06047 12.0196 7.26194 12.2681 7.26194C12.5165 7.26194 12.718 7.06053 12.718 6.81212C12.718 5.60204 12.2467 4.46441 11.3911 3.60868Z" fill="#93DE64"/>
<path d="M13.0046 1.99532C11.7178 0.708574 10.0071 -5.85901e-05 8.18743 3.63335e-09C7.93896 3.63335e-09 7.73755 0.201445 7.73755 0.449883C7.73755 0.69835 7.93899 0.899766 8.18743 0.899766C9.76674 0.899707 11.2515 1.51477 12.3684 2.63153C13.4851 3.74827 14.1001 5.23307 14.1001 6.81237C14.1001 7.06084 14.3015 7.26226 14.55 7.26226C14.7984 7.26226 14.9999 7.06084 14.9999 6.81243C14.9999 4.99274 14.2913 3.28204 13.0046 1.99532Z" fill="#93DE64"/>
<path d="M9.77757 5.22247C9.34673 4.79163 8.79715 4.56396 8.18804 4.56396C8.18804 4.56396 8.18789 4.56396 8.18786 4.56396C7.93939 4.56402 7.73798 4.76541 7.73804 5.01391C7.7381 5.26237 7.93954 5.46379 8.18798 5.46373C8.18804 5.46373 8.18807 5.46373 8.18813 5.46373C8.55856 5.46373 8.87933 5.59662 9.14142 5.85868C9.39979 6.11708 9.53637 6.44682 9.53631 6.81212C9.53625 7.06059 9.73772 7.262 9.98613 7.26206H9.98619C10.2347 7.26206 10.436 7.06064 10.4361 6.81224C10.4361 6.2031 10.2084 5.65337 9.77757 5.22247Z" fill="#93DE64"/>
</g>
<defs>
<clipPath id="clip0">
<rect width="15" height="15" fill="white"/>
</clipPath>
</defs>
</svg>
