<svg width="24" height="20" viewBox="0 0 24 20" fill="none" xmlns="http://www.w3.org/2000/svg">
<path fill-rule="evenodd" clip-rule="evenodd" d="M23.2122 2.39932C23.5835 2.73251 23.8007 3.21079 23.8007 3.71824V3.71887C23.8007 4.06925 23.6968 4.41177 23.5022 4.70314C23.0048 5.44777 22.4101 6.12583 21.7361 6.71447C21.5818 12.897 16.8239 20 8.14486 20C5.44829 20 2.93493 19.2123 0.815321 17.8524C0.119697 17.4061 -0.175029 16.5381 0.104974 15.7605C0.384977 14.9829 1.16535 14.5021 1.98582 14.6017C2.24202 14.6328 2.49916 14.6483 2.76528 14.6483C3.09099 14.6483 3.41077 14.6248 3.7232 14.5795C3.10926 13.9379 2.63788 13.1592 2.35987 12.2946C2.27787 12.0396 2.25603 11.7742 2.29043 11.5172C1.37381 10.4735 0.818508 9.10496 0.818508 7.60736V7.55637C0.818508 7.17316 0.942274 6.80709 1.16181 6.5078C0.962113 5.91345 0.85395 5.27739 0.85395 4.61694C0.85395 3.53597 1.14623 2.51411 1.65518 1.63815C1.9475 1.13503 2.46819 0.807468 3.04827 0.761777C3.62836 0.716086 4.19391 0.958085 4.56139 1.40924C5.92485 3.08313 7.81259 4.30606 9.97298 4.83071C10.4866 2.081 12.899 0 15.7978 0C17.0995 0 18.3075 0.420016 19.2876 1.13209C19.7364 0.982527 20.1656 0.785411 20.5687 0.547147C21.2025 0.172613 22.0017 0.228846 22.5768 0.688421C23.093 1.10102 23.332 1.76156 23.2122 2.39932ZM18.8319 3.08155C18.8433 3.0793 18.8547 3.07702 18.8662 3.07472C19.0713 3.03344 19.2739 2.98452 19.4734 2.92835C20.1278 2.74412 20.7503 2.48175 21.3297 2.15406C21.3769 2.12738 21.4238 2.10026 21.4704 2.07272C21.4463 2.14738 21.4203 2.22112 21.3922 2.29388C21.2908 2.55674 21.1635 2.80676 21.0134 3.04081C20.8567 3.28524 20.6752 3.51224 20.4724 3.71824C20.4721 3.71845 20.4719 3.71866 20.4717 3.71887C20.225 3.96938 19.9467 4.18882 19.6432 4.37075C20.4813 4.27208 21.2839 4.05079 22.0272 3.71887C22.0275 3.71874 22.0277 3.71862 22.028 3.71849C22.0282 3.71841 22.0284 3.71832 22.0286 3.71824V3.71887C22.0027 3.75765 21.9765 3.79621 21.9499 3.83454C21.5016 4.48228 20.9639 5.06509 20.3565 5.56034C20.2261 5.66663 20.0925 5.7689 19.9559 5.8669C19.9597 5.94991 19.9626 6.03306 19.9646 6.1166C19.9668 6.21204 19.9679 6.308 19.9679 6.40486C19.9679 11.8952 15.787 18.2279 8.14486 18.2279C7.15689 18.2279 6.19788 18.1066 5.28096 17.8778C4.39962 17.6579 3.55717 17.3387 2.76528 16.9324C2.42461 16.7577 2.0933 16.5668 1.77228 16.3609C2.10075 16.4007 2.42922 16.4204 2.76528 16.4204C3.63964 16.4204 4.48141 16.2866 5.27241 16.0385C5.39376 16.0005 5.51391 15.9597 5.63279 15.9164C6.46726 15.612 7.23962 15.1785 7.92714 14.64C7.11287 14.6239 6.35502 14.3729 5.71896 13.9523C5.55126 13.8413 5.39204 13.7186 5.24247 13.5853C5.1212 13.4772 5.00627 13.3621 4.89834 13.2407C4.87516 13.2146 4.8523 13.1882 4.82977 13.1616C4.48344 12.7518 4.21482 12.2744 4.04689 11.7522C4.30384 11.7996 4.56079 11.8275 4.82977 11.8275C5.20951 11.8275 5.57722 11.7762 5.92531 11.6813C5.63323 11.6231 5.35223 11.5342 5.0858 11.4181C4.99887 11.3802 4.91348 11.3394 4.82977 11.2959C4.60918 11.1811 4.40019 11.0471 4.20502 10.8961C3.90782 10.6661 3.64266 10.3967 3.41737 10.0956C3.31433 9.95798 3.21964 9.8137 3.13403 9.66357C3.02356 9.46985 2.92822 9.26639 2.84962 9.05481C2.68212 8.60397 2.5906 8.11626 2.5906 7.60736V7.55609C2.6224 7.57356 2.65444 7.59065 2.68673 7.60736C3.20687 7.87639 3.79037 8.04421 4.40801 8.07201C4.42978 8.07299 4.4516 8.0738 4.47346 8.07443C4.44843 8.05773 4.42359 8.04077 4.39895 8.02354C4.21961 7.89817 4.05072 7.75892 3.8938 7.60736C3.87626 7.59042 3.85888 7.57333 3.84165 7.55609C3.55739 7.27172 3.31433 6.94613 3.12195 6.58921C2.98709 6.33902 2.87714 6.07343 2.79534 5.79585C2.68513 5.42187 2.62605 5.02613 2.62605 4.61694C2.62605 4.59762 2.62618 4.57833 2.62644 4.55907C2.63658 3.82112 2.84017 3.12607 3.18742 2.5284C3.58946 3.02198 4.03053 3.48239 4.50592 3.90495C6.01327 5.2448 7.86569 6.20414 9.91328 6.634C10.5105 6.75938 11.1243 6.83971 11.7511 6.8713C11.6796 6.56625 11.6441 6.2498 11.6441 5.92576C11.6441 5.64129 11.6727 5.36351 11.7272 5.09512C12.1119 3.199 13.788 1.7721 15.7978 1.7721C16.9013 1.7721 17.9065 2.20066 18.652 2.90177C18.7138 2.95985 18.7738 3.01981 18.8319 3.08155Z" fill="#93DE64"/>
</svg>
